<?xml version="1.0" encoding="utf-8"?>
<!-- Generator: Adobe Illustrator 23.1.1, SVG Export Plug-In . SVG Version: 6.00 Build 0)  -->
<svg version="1.1" id="Lager_1" xmlns="http://www.w3.org/2000/svg" xmlns:xlink="http://www.w3.org/1999/xlink" x="0px" y="0px"
	 viewBox="0 0 282 49" style="enable-background:new 0 0 282 49;" xml:space="preserve">
<style type="text/css">
	.st0{fill:#0A0A0A;}
</style>
<path class="st0" d="M57.3,11.7L68,37h4l10.8-25.3h-6.3L70,27.9l-6.4-16.2H57.3z"/>
<path class="st0" d="M87.3,20.1V37h5.5V20.1H87.3z M86.8,12.8c0,1.8,1.4,3.2,3.2,3.2s3.2-1.4,3.2-3.2S91.8,9.6,90,9.6
	S86.8,11,86.8,12.8z"/>
<path class="st0" d="M99.3,37h5.5v-8.7c0-1.1,0.2-2.3,1.1-3.2c0.4-0.5,1.1-0.9,2.3-0.9c1,0,1.7,0.3,2.1,0.8c0.9,0.9,0.9,2.3,0.9,3.4
	V37h5.5V26.3c0-1.4-0.1-3.4-1.7-5c-1.4-1.4-3.4-1.7-4.9-1.7c-1.6,0-3.6,0.3-5.2,2.5v-2h-5.5V37z"/>
<path class="st0" d="M122.8,45.7h6.2l13.6-25.6h-6.2l-4.7,9.2l-4.8-9.2h-6.3l8.1,14.8L122.8,45.7z"/>
<path class="st0" d="M147,9.3V37h5.5V9.3H147z"/>
<path class="st0" d="M167.6,11.7l8.6,25.3h4.9l5.3-15.4l5.3,15.4h4.9l8.6-25.3h-6.1l-5.4,16.8l-5.4-16.8h-4l-5.4,16.8l-5.4-16.8
	H167.6z"/>
<path class="st0" d="M227.4,28.5c0-2.2-0.8-4.6-2.5-6.3c-1.5-1.5-4.1-2.7-7.4-2.7s-5.9,1.2-7.4,2.7c-1.7,1.7-2.5,4.1-2.5,6.3
	s0.8,4.6,2.5,6.3c1.5,1.5,4.1,2.7,7.4,2.7s5.9-1.2,7.4-2.7C226.6,33.1,227.4,30.7,227.4,28.5z M217.5,24.1c1.3,0,2.3,0.4,3.1,1.2
	c0.8,0.8,1.3,1.8,1.3,3.2c0,1.4-0.5,2.4-1.3,3.2c-0.8,0.8-1.8,1.2-3,1.2c-1.4,0-2.4-0.5-3.1-1.2c-0.6-0.6-1.3-1.6-1.3-3.2
	c0-1.4,0.5-2.4,1.3-3.2S216.2,24.1,217.5,24.1z"/>
<path class="st0" d="M232.8,37h5.5v-6.9c0-1.4,0.1-3.3,1.3-4.6c0.7-0.7,1.6-1.1,2.7-1.1c0.9,0,1.7,0.2,2.5,0.6l0.3-5.1
	c-0.6-0.2-1.1-0.3-1.8-0.3c-1.1,0-2,0.2-2.9,0.7c-0.9,0.5-1.6,1.4-2.1,2.4v-2.7h-5.5V37z"/>
<path class="st0" d="M249.4,9.3V37h5.5V9.3H249.4z"/>
<path class="st0" d="M279.6,9.3h-5.5V22c-1.4-1.9-3.4-2.5-5.3-2.5c-2.3,0-4.4,0.9-5.9,2.3c-1.6,1.6-2.7,3.9-2.7,6.7
	c0,2.6,0.9,5.1,2.7,6.8c1.5,1.5,3.3,2.3,5.8,2.3c3,0,4.5-1.4,5.4-2.6V37h5.5V9.3z M270.2,24.2c1.2,0,2.2,0.3,3.1,1.3
	c0.6,0.7,1.2,1.7,1.2,3.1c0,1.4-0.6,2.4-1.3,3c-0.9,0.8-2.1,1.3-3.1,1.3c-1,0-2-0.4-2.9-1.2c-0.8-0.8-1.3-1.9-1.3-3.1
	c0-1.4,0.5-2.5,1.3-3.2C268.1,24.5,269.1,24.2,270.2,24.2z"/>
<path class="st0" d="M40,24c0,11-9,20-20,20S0,35,0,24S9,4,20,4S40,13,40,24z M15.5,24c0,2.5,2,4.5,4.5,4.5s4.5-2,4.5-4.5
	s-2-4.5-4.5-4.5S15.5,21.5,15.5,24z"/>
</svg>
