<svg width="282" height="49" viewBox="0 0 282 49" fill="none" xmlns="http://www.w3.org/2000/svg">
<path d="M57.2662 11.654L68.0202 37H71.9722L82.7262 11.654H76.4182L69.9962 27.88L63.5742 11.654H57.2662Z" fill="#0A0A0A"/>
<path d="M87.2761 20.052V37H92.7481V20.052H87.2761ZM86.8201 12.832C86.8201 14.618 88.2261 16.024 90.0121 16.024C91.7981 16.024 93.2041 14.618 93.2041 12.832C93.2041 11.046 91.7981 9.63997 90.0121 9.63997C88.2261 9.63997 86.8201 11.046 86.8201 12.832Z" fill="#0A0A0A"/>
<path d="M99.2981 37H104.77V28.298C104.77 27.196 104.922 25.98 105.834 25.068C106.252 24.612 106.974 24.156 108.114 24.156C109.102 24.156 109.786 24.498 110.204 24.916C111.078 25.79 111.116 27.196 111.116 28.298V37H116.588V26.284C116.588 24.916 116.474 22.902 114.878 21.306C113.434 19.862 111.496 19.596 110.014 19.596C108.418 19.596 106.442 19.938 104.77 22.066V20.052H99.2981V37Z" fill="#0A0A0A"/>
<path d="M122.835 45.702H128.991L142.633 20.052H136.477L131.803 29.248L127.015 20.052H120.707L128.801 34.834L122.835 45.702Z" fill="#0A0A0A"/>
<path d="M147.039 9.29797V37H152.511V9.29797H147.039Z" fill="#0A0A0A"/>
<path d="M167.6 11.654L176.226 37H181.166L186.486 21.61L191.806 37H196.746L205.372 11.654H199.292L193.896 28.45L188.5 11.654H184.472L179.076 28.45L173.68 11.654H167.6Z" fill="#0A0A0A"/>
<path d="M227.439 28.526C227.439 26.36 226.603 23.928 224.893 22.218C223.373 20.698 220.789 19.482 217.483 19.482C214.177 19.482 211.593 20.698 210.073 22.218C208.363 23.928 207.527 26.36 207.527 28.526C207.527 30.692 208.363 33.124 210.073 34.834C211.593 36.354 214.177 37.57 217.483 37.57C220.789 37.57 223.373 36.354 224.893 34.834C226.603 33.124 227.439 30.692 227.439 28.526ZM217.483 24.118C218.737 24.118 219.763 24.536 220.561 25.334C221.359 26.132 221.815 27.158 221.815 28.526C221.815 29.894 221.359 30.92 220.561 31.718C219.763 32.516 218.737 32.934 217.521 32.934C216.077 32.934 215.089 32.402 214.405 31.718C213.759 31.072 213.151 30.084 213.151 28.526C213.151 27.158 213.607 26.132 214.405 25.334C215.203 24.536 216.229 24.118 217.483 24.118Z" fill="#0A0A0A"/>
<path d="M232.751 37H238.223V30.122C238.223 28.678 238.337 26.854 239.553 25.562C240.237 24.84 241.111 24.422 242.289 24.422C243.239 24.422 244.037 24.65 244.759 25.03L245.063 19.9C244.455 19.71 243.961 19.634 243.277 19.634C242.213 19.634 241.263 19.786 240.351 20.356C239.477 20.888 238.717 21.762 238.223 22.712V20.052H232.751V37Z" fill="#0A0A0A"/>
<path d="M249.387 9.29797V37H254.859V9.29797H249.387Z" fill="#0A0A0A"/>
<path d="M279.622 9.29797H274.15V21.952C272.782 20.09 270.73 19.482 268.868 19.482C266.55 19.482 264.46 20.356 262.978 21.762C261.344 23.32 260.318 25.638 260.318 28.45C260.318 31.072 261.23 33.504 262.978 35.252C264.46 36.772 266.284 37.57 268.792 37.57C271.794 37.57 273.314 36.164 274.15 34.948V37H279.622V9.29797ZM270.198 24.194C271.376 24.194 272.402 24.536 273.276 25.448C273.922 26.132 274.492 27.12 274.492 28.564C274.492 29.97 273.884 30.996 273.238 31.604C272.364 32.44 271.148 32.858 270.122 32.858C269.172 32.858 268.108 32.478 267.272 31.68C266.474 30.92 265.942 29.818 265.942 28.564C265.942 27.196 266.474 26.094 267.272 25.334C268.146 24.498 269.096 24.194 270.198 24.194Z" fill="#0A0A0A"/>
<path d="M40 24C40 35.0457 31.0457 44 20 44C8.9543 44 0 35.0457 0 24C0 12.9543 8.9543 4 20 4C31.0457 4 40 12.9543 40 24ZM15.4568 24C15.4568 26.5091 17.4909 28.5432 20 28.5432C22.5091 28.5432 24.5432 26.5091 24.5432 24C24.5432 21.4909 22.5091 19.4568 20 19.4568C17.4909 19.4568 15.4568 21.4909 15.4568 24Z" fill="#0A0A0A"/>
</svg>
